# xmcd
#
# Track frame offsets:
#	150
#	12015
#	24192
#	38562
#	50482
#	63457
#	89545
#	100745
#	113440
#	126775
#	142950
#	158030
#	171290
#	188637
#
# Disc length: 2690
#
# Revision: 1
# Processed by: cddbd v1.5.1PL0 Copyright (c) Steve Scherf et al.
# Submitted via: VisiTrax 2.9.2.167 - For more info visit www.synapsa.com
# Normalized: r0:DSETVAR1
#
DISCID=a40a800e
DTITLE=Various Artist - Mr Music Country 08*93
DYEAR=1900
DGENRE=
TTITLE0=Johnny Lee - Maybe I Won't Love You Anymore
TTITLE1=Al Rapone - Good Old Cajun Music
TTITLE2=Janice and Jayne White - Jezebel Kane
TTITLE3=Freddy Bennett - Our Fading Love
TTITLE4=Rick Vincent - Hello, She Lied
TTITLE5=Maria Muldaur - Louisiana Love Call
TTITLE6=Brian Dill - Why Don't We End It Now
TTITLE7=Josh Logan - Lovin' On Backstreets
TTITLE8=Tim McGraw - Two Steppin' Mind
TTITLE9=Moe Bandy and Becky Hobbs - Pardon Me: Haven't We Loved Somewhere Before
TTITLE10=Sawyer Brown - Cafe On The Corner
TTITLE11=Desert Rose Band With EmmyLou Harris - The Price I Pay
TTITLE12=Charlie Barrett - Heavy Tearfall
TTITLE13=Rayburn Anthony - Home Entertainment Center
EXTD=
EXTT0=
EXTT1=From the album "Zydeco to go" 73790 (Blind Pig) P 1990 Blind Pig Records
EXTT2=From the album "J J White" 77492 (Curb) P 1991 Curb Records
EXTT3=From the singel HCMC-11A (Club 45 Rec.) P 1992 Bob Grady Music
EXTT4=From the Album "A wanted man" 77586 (Curb) P 1993 Curb Records
EXTT5=From the Album "Lousiana love call" 1081 (Black Top) P 1992 Black Top Records Inc.
EXTT6=From the demo single MK 4578902A P 1992 Brian Dill
EXTT7=From the radio station single 10574 (Curb) P 1990 Curb Records
EXTT8=From the Album "Tim McGraw" 77603 (Curb) P 1993 Curb Records
EXTT9=From the Album "M. Bandy's greatest hits" 77259 (Curb) P 1990 Curb Records
EXTT10=From the Album "Cafe On The Corner" 77574 (Curb) P 1992 Curb Records
EXTT11=From the Album "Traditional" 77602 (Curb) P 1993 Curb Records
EXTT12=From the Album "Stop and Rewind" 19012 (Courage) P 1992 Courage Records
EXTT13=From the Album "Country music fan" 301 (CMC) P 1993 Country Music Cassete Production
PLAYORDER=
